<svg width="169" height="150" viewBox="0 0 169 150" fill="none" xmlns="http://www.w3.org/2000/svg">
<g id="_&#231;&#183;&#168;&#233;&#155;&#134;&#227;&#131;&#162;&#227;&#131;&#188;&#227;&#131;&#137;" clip-path="url(#clip0_2_3320)">
<g id="Group">
<path id="Vector" d="M111.93 119.341C78.7868 148.031 27.4009 129.25 18.541 87.6528H22.2628C22.6381 88.8999 23.0536 90.1469 23.5138 91.3761C30.6179 110.705 48.4539 125.318 68.9126 128.257C83.6345 130.471 98.7317 126.965 111.304 118.526L111.934 119.341H111.93Z" fill="white"/>
<path id="Vector_2" d="M32.4088 44.5682C31.4929 45.2986 30.367 46.2828 29.0668 45.9132C28.0571 45.4945 28.3341 44.105 28.6334 43.4191C29.3885 41.6109 30.6172 40.2214 31.9263 38.9298C33.2801 37.6828 34.7456 36.5426 36.5596 35.8568C38.7712 34.9749 40.1429 36.2754 38.6863 38.3553C38.4272 38.7428 38.1323 39.0902 37.8151 39.4153L37.7078 39.3396C37.8955 38.9343 38.0697 38.5245 38.2127 38.1192C38.3512 37.6516 38.6059 37.0147 38.3333 36.6673C38.2887 36.6584 38.2216 36.6406 38.0742 36.654C36.1351 37.1439 34.482 38.7383 32.9986 40.0611C31.7878 41.2056 30.5815 42.5061 29.7683 43.9313C29.5717 44.3366 29.3572 44.7597 29.4734 45.0492C30.3402 45.3387 31.3767 44.7641 32.315 44.439L32.3999 44.5726L32.4088 44.5682Z" fill="white"/>
<path id="Vector_3" d="M48.4853 32.7613C47.404 33.2201 46.0547 33.8658 44.9065 33.1622C44.0486 32.4897 44.6875 31.2204 45.1611 30.6414C46.3764 29.1004 47.9357 28.0894 49.5442 27.1987C51.1839 26.3614 52.9041 25.6533 54.8387 25.4796C55.9468 25.3192 57.792 25.7869 57.1486 27.3145C56.6706 28.2319 55.9155 28.7397 55.0889 29.2429L55.004 29.1405C55.5178 28.517 56.1657 27.791 56.3578 27.0384C56.398 26.8736 56.3623 26.7578 56.331 26.7311C55.9736 26.5574 55.4776 26.6242 54.9996 26.7132C53.3732 27.0695 51.7648 27.7821 50.2814 28.5704C48.807 29.3498 47.2968 30.2762 46.1262 31.4386C45.8269 31.7771 45.5052 32.1245 45.5409 32.4362C46.3005 32.9484 47.4532 32.6723 48.4406 32.6099L48.4853 32.7613Z" fill="white"/>
<path id="Vector_4" d="M45.7159 49.494C42.9904 50.79 38.9336 50.3758 40.2561 46.4343C41.2256 43.9314 43.3658 42.1321 45.5327 40.6802C47.7712 39.3129 50.2375 38.195 52.9495 38.2574C55.7732 38.3375 56.7294 40.6178 55.1075 42.8491C54.7411 43.3836 54.3078 43.8556 53.8386 44.2832L53.7359 44.1986C54.3658 43.2232 55.0405 42.0831 55.0494 40.934C54.9109 38.4979 50.997 39.7449 49.5494 40.3372C46.8195 41.4596 44.2191 43.1921 42.3292 45.4634C41.4624 46.519 40.2516 48.5944 42.1103 49.2624C43.2049 49.6543 44.5051 49.5118 45.6667 49.3337L45.7114 49.4851L45.7159 49.494Z" fill="white"/>
</g>
<path id="Vector_5" d="M160.766 82.4109C157.75 82.4109 155.11 80.7853 153.68 78.3714L146.46 78.6787C146.165 78.995 145.973 79.4091 145.946 79.8768C143.913 114.152 116.846 142.763 81.5227 145.787C79.4764 145.961 77.439 146.054 75.4195 146.054C66.3361 146.054 57.5879 144.308 49.5233 141.124C42.3701 139.235 37.853 142.941 36.6109 144.143L36.2624 144.513L35.7709 144.099C35.7709 144.099 38.2194 137.115 33.3538 133C23.8058 126.578 0.777984 150.004 0.777984 150.004L-0.00390625 149.319C-0.00390625 149.319 27.0629 121.884 14.2578 116.437C10.5807 115.243 6.28696 116.571 5.31742 116.905L5.11636 116.976L4.69637 116.099C4.69637 116.099 13.4982 110.625 9.90599 101.82C7.88202 96.823 6.38972 91.5543 5.53635 86.0674L5.3889 85.1633C4.9287 81.9477 4.6919 78.652 4.6919 75.3118C4.6919 70.2969 5.42018 65.4157 6.48355 60.6992C6.68014 59.8129 6.89013 58.9356 7.118 58.0626C7.16714 57.88 7.21182 57.6974 7.26097 57.5148C14.7537 29.715 39.0325 8.17251 69.4145 5.57601C76.7688 4.94359 83.989 5.42904 90.8696 6.91211C95.4895 7.82957 99.2068 9.17458 100.529 9.68676C100.601 9.71348 100.668 9.7402 100.726 9.76247C100.766 9.77583 100.797 9.79365 100.833 9.80701C100.864 9.81592 100.887 9.82928 100.914 9.83818C100.914 9.83818 100.922 9.83818 100.931 9.84709C109.09 12.8711 116.221 7.04572 117.445 5.86104L117.793 5.49139L118.28 5.91004C118.28 5.91004 115.836 12.8934 120.702 17.0086C130.255 23.4264 153.282 0 153.282 0L154.064 0.681413C154.064 0.681413 126.997 28.1205 139.803 33.5674C143.48 34.761 147.773 33.4338 148.743 33.0998L148.944 33.0285L149.364 33.9014C149.364 33.9014 136.894 39.8159 140.482 48.6208C141.362 50.7853 143.685 57.5727 143.993 59.6971H143.185C130.107 20.3221 100.922 11.5573 100.922 11.5573C96.5305 9.86045 91.9643 8.74258 90.4094 8.38183C90.2888 8.35511 90.1905 8.32838 90.1056 8.31502C90.043 8.30166 89.9805 8.2883 89.9179 8.27049L89.8554 8.25713C85.307 7.31295 80.5933 6.81413 75.7635 6.81413C37.8217 6.81413 7.06438 37.4777 7.06438 75.2939C7.06438 113.11 37.8217 143.769 75.759 143.769C113.696 143.769 142.55 114.972 144.364 78.7678L142.725 78.8346L13.9629 85.8447L13.7842 84.9941L17.9885 84.6066C17.9349 84.2859 17.8857 83.9653 17.8366 83.6401C17.8366 83.6179 17.8277 83.5956 17.8277 83.5778C17.6981 82.6113 17.6087 81.7028 17.5551 81.1015C17.5462 81.0436 17.5417 80.9857 17.5417 80.9368C17.5238 80.7408 17.5104 80.5448 17.4926 80.3444C16.876 72.1096 18.0287 63.6698 21.1295 56.0852L21.4646 56.1876C19.5389 64.4091 19.2708 72.9602 20.7408 81.1995C20.8659 81.9522 21.0133 82.7004 21.1786 83.4442L21.2546 83.7871C21.2948 83.9519 21.3305 84.1256 21.3707 84.2904L152.809 72.1096C153.783 68.4308 157.236 65.7586 161.284 66.0125C165.23 66.2485 168.509 69.3438 168.942 73.2631C169.497 78.2156 165.623 82.4109 160.757 82.4109H160.766Z" fill="white"/>
</g>
<defs>
<clipPath id="clip0_2_3320">
<rect width="169" height="150" fill="white"/>
</clipPath>
</defs>
</svg>
